<?xml version="1.0" encoding="UTF-8" standalone="no"?>
<!-- Created with Inkscape (http://www.inkscape.org/) -->

<svg
   width="15.12486mm"
   height="14.598723mm"
   viewBox="0 0 15.12486 14.598724"
   version="1.1"
   id="svg1"
   xmlns="http://www.w3.org/2000/svg"
   xmlns:svg="http://www.w3.org/2000/svg">
  <defs
     id="defs1">
    <linearGradient
       id="swatch3">
      <stop
         style="stop-color:#000000;stop-opacity:0.00580552;"
         offset="0"
         id="stop3" />
    </linearGradient>
  </defs>
  <g
     id="layer1"
     transform="translate(0.06242998,-0.20063803)">
    <rect
       style="opacity:1;fill:#c3ab6b;fill-opacity:1;stroke:#000000;stroke-width:0.7;stroke-linecap:square;stroke-miterlimit:5;stroke-opacity:0"
       id="rect7"
       width="14.42486"
       height="13.898724"
       x="0.28757"
       y="0.55063802"
       rx="4"
       ry="4" />
    <path
       style="fill:#1a1a16;fill-opacity:1;stroke-width:0.084"
       d="m 6.9435131,13.969926 -0.059262,-0.05927 v -0.29828 -0.298282 l -0.030681,-0.05732 -0.030681,-0.05732 h -0.056542 -0.056542 l -0.046137,0.06587 -0.046137,0.06587 v 0.230473 0.230474 H 6.5587616 6.4999931 L 6.4249181,13.643965 6.3498431,13.495797 H 6.0796319 5.8094218 l -0.06866,0.07408 -0.068659,0.07409 h -0.068901 -0.068901 l -0.065856,-0.04614 -0.065866,-0.04614 v -0.08264 -0.08263 l 0.05419,-0.04903 0.05419,-0.04903 h 0.079359 0.079359 l 0.064407,0.07408 0.064407,0.07408 h 0.3033345 0.3033334 l 0.060795,0.08149 0.060795,0.08149 9.24e-4,-0.171738 9.24e-4,-0.171738 0.072734,-0.07273 0.072734,-0.07273 h 0.085082 0.085082 l 0.063357,0.06744 0.063357,0.06744 0.00851,0.325194 0.0085,0.325197 h 0.059262 0.059272 l 0.014816,-0.336101 0.014816,-0.336101 0.069951,-0.05654 0.069951,-0.05654 h 0.067515 0.067515 l 0.069951,0.05654 0.069951,0.05654 0.014816,0.336101 0.014816,0.336101 h 0.059272 0.059262 l 0.0084,-0.331978 0.0084,-0.331977 0.077122,-0.06067 0.077123,-0.06067 h 0.070087 0.070087 l 0.058517,0.05852 0.058516,0.05852 0.019604,0.0781 0.019593,0.0781 -0.01639,0.216689 -0.016391,0.21669 0.037706,0.05157 0.037705,0.05157 0.048741,-0.0187 0.048741,-0.0187 V 13.556 13.229103 l 0.059273,-0.05927 0.059262,-0.05926 h 0.083307 0.083307 l 0.064491,0.06008 0.064491,0.06008 0.0149,0.06586 0.0149,0.06586 0.00766,0.162983 0.00766,0.162983 0.059262,-0.118534 0.059273,-0.118533 0.3087641,-0.0085 0.308764,-0.0085 0.067641,-0.07299 0.067641,-0.07299 h 0.085722 0.085722 l 0.049035,0.05419 0.049035,0.05419 v 0.07457 0.07457 l -0.054191,0.04903 -0.054191,0.04903 h -0.080577 -0.080577 l -0.068659,-0.07409 -0.06866,-0.07408 H 9.2717338 9.0435247 l -0.052007,0.02782 -0.052006,0.02782 -0.053099,0.11775 -0.053098,0.11775 -0.062832,0.01643 -0.062832,0.01643 -0.030145,-0.03001 -0.030145,-0.03001 -0.014816,-0.254876 -0.014815,-0.254877 -0.05186,-0.03255 -0.051859,-0.03255 -0.05186,0.03257 -0.051859,0.03257 -0.014816,0.333004 -0.014815,0.333003 -0.068124,0.05505 -0.068124,0.05505 -0.05041,-0.01793 -0.05041,-0.01793 -0.037044,-0.02866 -0.037044,-0.02867 V 13.63206 13.331131 l -0.046137,-0.06587 -0.046137,-0.06587 h -0.056542 -0.056542 l -0.030681,0.05732 -0.030681,0.05732 v 0.311418 0.311418 l -0.065856,0.04614 -0.065867,0.04614 h -0.037863 -0.037863 l -0.059273,-0.05927 -0.059272,-0.05927 v -0.293056 -0.29305 l -0.057414,-0.06995 -0.057404,-0.06995 -0.053718,0.03273 -0.053718,0.03273 -0.014816,0.32732 -0.014816,0.32732 -0.056448,0.06222 -0.056448,0.06222 h -0.054673 -0.054673 z m -1.2745456,-0.458939 0.036571,-0.04408 -0.017199,-0.04483 -0.017199,-0.04484 h -0.075946 -0.075947 l -0.017062,0.04446 -0.017062,0.04446 0.017062,0.04446 0.017062,0.04446 h 0.056564 0.056564 z m 4.1190334,0 0.036572,-0.04408 -0.017199,-0.04483 -0.017199,-0.04484 h -0.071841 -0.071841 l -0.018501,0.04821 -0.018501,0.04821 0.033779,0.04069 0.033779,0.0407 h 0.037191 0.037191 z M 5.8767131,12.299006 v -0.515219 l 0.089071,-0.01307 0.089072,-0.01307 0.014648,0.01465 0.014647,0.01465 v 0.424744 0.424744 h 0.2667 0.2667 v 0.0889 0.0889 H 6.2471342 5.8767173 Z m 1.1557014,0.475286 v -0.03993 l 0.2201724,-0.471241 0.2201724,-0.47124 0.1134294,-0.0087 0.1134294,-0.0087 0.2129526,0.468078 0.2129526,0.468078 0.019646,0.05186 0.019645,0.05186 H 8.0585333 7.9522481 L 7.8917786,12.695791 7.8313091,12.577257 H 7.5806258 7.3299467 l -0.060469,0.118534 -0.060469,0.118533 h -0.088294 -0.088294 z m 0.7408328,-0.360766 v -0.01547 l -0.091255,-0.199374 -0.091255,-0.199374 -0.098312,0.192616 -0.098322,0.192618 0.013514,0.02223 0.013524,0.02223 H 7.5971916 7.773243 Z m 0.787858,-0.103016 -0.020948,-0.503716 0.017724,-0.02867 0.017724,-0.02868 0.3174329,0.0148 0.3174349,0.01481 0.077647,0.03064 0.077648,0.03064 0.033474,0.07348 0.033474,0.07348 v 0.08751 0.08751 l -0.055955,0.05595 -0.055955,0.05595 0.077511,0.05787 0.077511,0.05786 v 0.120878 0.12088 l -0.055629,0.06147 -0.055629,0.06147 -0.1066831,0.02963 -0.1066832,0.02963 -0.2845699,1.68e-4 -0.28457,1.68e-4 z m 0.6692501,0.276873 0.054191,-0.04903 v -0.03774 -0.03774 l -0.046568,-0.04657 -0.046568,-0.04657 h -0.205316 -0.205317 v 0.13335 0.13335 h 0.1976919 0.1976919 z m -0.040635,-0.431018 0.035553,-0.03555 v -0.06889 -0.06889 l -0.076009,-0.0289 -0.07601,-0.0289 H 8.9270177 8.780779 v 0.13335 0.13335 h 0.18669 0.18669 z M 3.1800811,10.175612 V 9.137199 l 0.2283498,0.00861 0.2283498,0.00861 0.3569086,0.4050512 0.3569076,0.4050517 0.014816,0.0019 0.014816,0.0019 0.3704169,-0.4141437 0.3704169,-0.4141431 0.2296581,-1.764e-4 0.2296581,-1.764e-4 v 1.0371657 1.037167 H 5.3463119 5.1122438 l 0.00168,-0.437092 0.00168,-0.437091 -0.00472,-0.250645 -0.00473,-0.2506446 -0.1354542,0.1321105 -0.1354531,0.1321121 -0.2105891,0.244476 -0.210589,0.244475 -0.046599,-3.19e-4 -0.046599,-3.2e-4 L 4.1467468,10.391352 3.9726242,10.191646 3.8112739,10.021253 3.6499235,9.8508619 h -0.012715 -0.012716 v 0.6815671 0.681566 H 3.4022432 3.1799939 Z m 2.6373658,1.016341 v -0.02207 L 6.235664,10.19183 6.6538811,9.2137765 l 0.046767,-0.037044 0.046767,-0.037044 h 0.2277744 0.2277744 l 0.030009,0.037044 0.030009,0.037044 0.1046535,0.2518835 0.1046535,0.2518835 0.271739,0.5926675 0.2717389,0.592666 0.060501,0.140759 0.060501,0.140758 h 0.020675 0.020675 l 0.2990705,-0.703792 0.2990704,-0.7037913 0.127658,-0.3036842 0.1276558,-0.3036841 0.08946,-0.016632 0.08946,-0.016632 0.1916796,0.00914 0.1916796,0.00914 0.093219,0.2222503 0.093219,0.2222504 0.3596273,0.7931039 0.359628,0.793104 v 0.01441 0.01441 h -0.247424 -0.247424 l -0.069447,-0.174851 -0.069447,-0.174852 -0.1054,-0.01744 -0.1054011,-0.01744 -0.3296717,-3.27e-4 -0.3296706,-3.28e-4 -0.096778,0.01935 -0.096779,0.01935 -0.07476,0.17326 -0.07476,0.17326 H 8.1523802 7.6522253 l -0.086741,-0.19332 -0.08674,-0.19332 -0.5120986,0.0082 -0.5120987,0.0082 -0.086772,0.185208 -0.086772,0.185209 H 6.0492187 5.8174343 Z M 7.1520704,10.050916 6.9799093,9.6582751 H 6.9581433 6.9363763 L 6.7948646,9.9882199 6.653353,10.318165 l -0.019898,0.06269 -0.019897,0.0627 h 0.3553399 0.35534 z m 2.5096407,0.355602 -0.014406,-0.03704 -0.1555764,-0.363009 -0.1555764,-0.3630085 -0.018396,5.88e-5 -0.018396,5.88e-5 -0.062811,0.1555155 -0.062811,0.1555163 -0.1064574,0.2444751 -0.1064553,0.244476 H 9.3184724 9.6761182 Z M 10.91438,10.384288 V 9.5545604 h -0.293906 -0.293909 l -0.04687,-0.017987 -0.04687,-0.017986 V 9.3439524 9.1693227 h 0.874184 0.874182 l 0.02223,-0.00735 0.02223,-0.00735 0.0087,0.200025 0.0087,0.200025 h -0.342026 -0.342136 v 0.8297333 0.829733 h -0.222251 -0.22225 z M 3.0022846,8.5914762 v -0.044446 h 4.6376169 4.6376155 v 0.044446 0.044447 H 7.6399015 3.0022846 Z m 7.1510594,-0.1238149 -0.09429,-0.012989 0.06023,-0.1020705 0.06023,-0.1020705 -0.0106,-0.1332649 -0.0106,-0.133266 h 0.01107 0.01107 l 0.146862,0.1078066 0.146862,0.1078067 0.25938,0.081322 0.25938,0.081323 0.06445,0.040257 0.06445,0.040247 v 0.015928 0.015939 l -0.437092,0.00305 -0.437092,0.00305 z m -4.7213311,-0.053739 0.03759,-0.045297 0.1516988,-0.042546 0.1516977,-0.042546 0.1256041,-0.032287 0.1256052,-0.032288 0.1986485,-0.1360012 0.1986495,-0.1360002 0.078152,-0.022417 0.078151,-0.022417 0.091613,0.038524 0.091613,0.038525 0.033422,0.062454 0.033421,0.062454 -0.00882,0.1696191 -0.00882,0.1696202 -0.7078733,0.00798 -0.7078722,0.00798 z M 6.9138842,8.267569 V 8.0728906 h 0.075495 0.075495 l -0.00882,0.1852085 -0.00882,0.1852084 -0.066675,0.00945 -0.066675,0.00945 z m 0.2450679,0.01155 0.016443,-0.181272 0.00997,-0.00882 0.00998,-0.00882 0.5482166,-0.063011 0.5482165,-0.06301 0.257543,8.4e-5 0.2575429,8.41e-5 0.016401,-0.026523 0.016401,-0.026523 -0.046704,-0.017924 -0.046704,-0.017924 H 8.5172353 8.2882135 L 7.8158668,7.9243765 7.3435211,7.983292 7.1423159,7.9836449 6.9411107,7.9839976 6.8311663,7.9278856 6.7212218,7.8717736 6.6721238,7.8167642 6.6230258,7.7617546 6.5882603,7.631226 6.5534948,7.5006984 6.5742113,7.3222383 6.5949278,7.1437782 6.7414847,6.8653077 6.8880416,6.5868361 6.9047366,6.3877803 6.9214316,6.1887244 6.8871806,6.0290352 6.8529296,5.8693459 6.7352299,5.6079516 6.6175301,5.3465572 V 5.2853842 5.2242112 L 6.5870171,5.1671963 6.5565041,5.1101813 6.4758851,5.0688953 6.3952661,5.0276093 6.2471006,5.0082578 6.0989341,4.9889062 5.4321841,4.9619003 4.7654341,4.9348943 4.1895437,4.7846518 3.6136544,4.6344094 l -0.00882,-0.00882 -0.00882,-0.00882 0.029127,-0.101556 0.029127,-0.101556 V 4.3764244 4.3391914 H 3.6269369 3.5996054 L 3.5640944,4.4503161 3.5285834,4.5614418 3.5061344,4.5859908 3.4836854,4.6105398 3.280061,4.5519813 3.0764356,4.4934228 2.9965306,4.4754048 2.9166256,4.4573868 2.8418341,4.3319643 2.7670426,4.2065428 l 0.1102552,-0.034283 0.1102553,-0.034282 -0.103719,-0.00556 -0.103719,-0.00556 0.1035405,-0.045066 0.1035405,-0.045076 0.1257469,0.014175 0.125747,0.014175 0.1709883,0.1018605 0.1709883,0.1018605 0.7021024,0.1274228 0.7021014,0.1274217 0.5570838,-0.032267 0.5570838,-0.032266 0.3584291,-0.015026 0.358429,-0.015036 0.040037,0.1213086 0.040036,0.1213086 0.1313813,0.1461264 0.1313812,0.1461274 0.08505,0.043985 0.08505,0.043974 V 5.243715 5.435571 H 7.6103492 7.8918658 V 5.2582281 5.0809272 l 0.1426383,-0.072282 0.1426393,-0.072282 0.1018395,-0.1134263 0.1018395,-0.1134273 0.056353,-0.1259422 0.056354,-0.1259412 0.047355,5.544e-4 0.047355,5.544e-4 0.7752129,0.055786 0.7752117,0.055786 0.208531,-0.039732 0.208531,-0.039732 0.51274,-0.077826 0.51274,-0.077826 0.103719,-0.067578 0.103719,-0.067578 0.103719,-0.053991 0.103719,-0.053991 0.118411,-0.021987 0.118411,-0.021987 0.09643,0.040288 0.09643,0.040288 V 4.14555 4.162444 l -0.07085,-0.017787 -0.07085,-0.017777 -0.0198,0.032036 -0.0198,0.032035 h 0.105465 0.105466 V 4.22326 4.255569 l -0.08149,0.1161478 -0.08149,0.1161489 -0.05927,0.012159 -0.05926,0.012159 -0.192618,0.045727 -0.192616,0.045727 -0.06214,0.018175 -0.06214,0.018176 -0.03139,-0.083759 -0.0314,-0.083759 -0.01739,-0.053739 -0.01739,-0.053739 -0.02825,0.017461 -0.02826,0.017462 0.04319,0.1223869 0.04319,0.1223869 -0.0136,0.013597 -0.0136,0.013598 -0.592197,0.1559597 -0.592199,0.1559596 -0.8539582,0.036403 -0.8539598,0.036403 -0.05186,0.027521 -0.051859,0.02752 V 5.3120269 5.5123995 L 8.4433898,5.7103812 8.3133547,5.9083629 8.1989162,6.1979413 8.0844757,6.4875198 l 0.00263,0.3185584 0.00263,0.3185585 H 8.0258647 7.9620037 L 7.7868878,7.0922652 7.6117709,7.0598937 7.4258453,6.9755892 7.2399187,6.8912847 v 0.023184 0.023184 l 0.052658,0.047659 0.052657,0.047659 0.1670445,0.076472 0.1670434,0.076472 0.2470188,0.028119 0.2470188,0.028119 0.1629842,0.032624 0.1629831,0.032623 0.3111507,0.088799 0.3111496,0.088798 0.3721368,0.1458754 0.3721358,0.1458755 0.1070107,0.098018 0.1070109,0.098017 0.02094,0.1115898 0.02094,0.1115887 -0.032,0.070245 -0.032,0.070245 -0.081501,0.053424 -0.081501,0.053424 -1.3761048,0.0085 -1.3761059,0.00851 z m 2.089856,-3.5177478 0.00872,-0.2148415 H 9.1525073 9.0474926 v 0.2024946 0.2024946 l 0.021116,0.021116 0.021116,0.021115 0.07519,-0.00882 0.075201,-0.00882 z m -3.081918,-0.044447 0.00861,-0.2296581 h -0.090142 -0.090142 v 0.2390346 0.2390357 l 0.081491,-0.00934 0.081491,-0.00935 z M 9.738758,7.622154 9.555848,7.5279165 9.496187,7.3336822 9.436526,7.139448 9.404984,6.9263379 9.3734525,6.7132288 l -0.00242,-0.1276737 -0.00241,-0.1276737 -0.04493,0.103215 -0.04493,0.103215 0.019362,0.1486716 0.019362,0.1486717 0.057656,0.2273291 0.057666,0.2273282 0.016317,0.042535 0.016317,0.042536 L 9.1305277,7.3895233 8.7956123,7.2776637 8.5458079,7.2303927 8.2960045,7.1831322 8.2871845,7.1743122 8.2783645,7.1654922 8.4332489,6.943498 8.5881334,6.7215028 8.7851921,6.471144 8.9822498,6.2207841 l 0.114092,-0.106701 0.1140919,-0.106701 0.073269,-0.048877 0.073269,-0.048877 h 0.1227156 0.1227156 l 0.076702,0.076702 0.076702,0.076702 0.015866,0.1233246 0.015866,0.1233235 0.060543,0.5334001 0.060543,0.5334 0.023646,0.1703918 0.023646,0.1703909 -0.017136,-4.547e-4 -0.017136,-4.556e-4 z M 6.1434173,7.2086472 5.8026346,7.1864082 5.4322187,7.1399667 5.0618008,7.0935252 4.6778,7.0171377 4.2937993,6.9407502 3.8628835,6.7998097 3.4319687,6.6588693 3.120818,6.5086279 2.8096684,6.3583876 2.5726015,6.2019565 2.3355314,6.0455254 2.1214742,5.8292517 1.907417,5.612979 1.7578886,5.3913975 1.6083686,5.169816 1.5040091,4.9618614 1.3996391,4.7539057 1.3415951,4.5269461 1.2835511,4.2999855 V 4.1593338 4.0186821 l 0.051828,0.010185 0.051828,0.010185 0.6445236,0.081196 0.644531,0.081196 v 0.063578 0.063578 L 2.4910511,4.3058781 2.3058395,4.2831561 1.9354247,4.2222876 1.5650183,4.1614191 l -0.08148,-6.3e-6 -0.08148,-6.3e-6 v 0.057813 0.057803 l 0.032844,0.1570338 0.032844,0.1570338 0.088473,0.2148415 0.088473,0.2148416 h 0.094437 0.094426 l 0.3547152,-0.043302 0.3547152,-0.043302 0.3259652,-0.031322 0.3259672,-0.031321 0.1242738,-0.017398 0.1242738,-0.017399 0.00903,-0.078383 0.00903,-0.078372 h 0.029631 0.029631 l 0.051461,0.1606447 0.05146,0.1606448 0.067074,0.071831 0.067074,0.07183 0.1185335,0.06929 0.1185334,0.06929 0.1629831,0.059692 0.1629831,0.059692 0.2963342,0.074004 0.2963331,0.074004 0.4148665,0.058758 0.4148666,0.058758 0.40005,0.03234 0.40005,0.03234 0.096306,0.015582 0.096306,0.015582 v 0.028287 0.028287 H 6.5318942 6.3276734 l -0.016264,0.066675 -0.016254,0.066675 -0.058706,0.4593162 -0.058706,0.4593172 -0.013881,0.1226159 -0.013881,0.1226169 0.1739094,0.012579 0.1739115,0.012579 0.020874,0.020874 0.020874,0.020874 -0.027657,0.022995 -0.027657,0.022995 z M 6.0646883,7.043142 6.0788633,6.9912825 6.1118543,6.7542156 6.1448453,6.5171497 6.1853543,6.1763659 6.2258633,5.8355832 6.2068583,5.8161372 6.1878533,5.7966912 5.9964877,5.7865062 5.8051199,5.7763212 5.6487077,6.3965635 5.4922955,7.0168069 l 0.012463,0.012463 0.012463,0.012463 0.1575126,0.022932 0.1575137,0.022932 0.1091275,0.00368 0.1091286,0.00367 z M 5.5647707,6.3975222 5.7203902,5.776317 5.7022462,5.7569235 5.6841022,5.73753 5.4941992,5.72724 5.3042962,5.71695 5.1755735,6.0429172 5.0468519,6.3688834 4.9442144,6.6566559 4.8415769,6.9444283 l 0.095298,0.016506 0.095298,0.016506 0.1629831,0.025452 0.1629831,0.025452 0.025515,-0.00483 0.025515,-0.00483 z m -0.576723,-0.086824 0.2300865,-0.6090693 -0.0189,-0.010616 -0.0189,-0.010616 -0.1185345,-0.020286 -0.1185324,-0.020286 -0.04872,-0.014238 -0.04872,-0.014238 -0.2772472,0.4477284 -0.2772473,0.4477273 -0.081228,0.132153 -0.081228,0.132153 0.045696,0.017535 0.045696,0.017535 0.2577845,0.065867 0.2577834,0.065856 0.011067,-0.00903 0.011067,-0.00903 z M 4.3923775,6.1720945 4.7519699,5.6047848 l -0.00808,-0.00567 -0.00809,-0.00567 -0.2151166,-0.045927 -0.2151188,-0.045927 -0.3964842,0.4040368 -0.3964842,0.4040379 -0.079832,0.096107 -0.079832,0.096106 0.083958,0.033285 0.083958,0.033285 0.2222493,0.08401 0.2222504,0.08401 0.033705,0.00147 0.033705,0.00147 z M 3.7259026,5.9552338 4.1912237,5.4673975 3.9893959,5.3753755 3.787567,5.2833535 3.769759,5.2779985 3.751951,5.2726435 3.1104146,5.6111268 2.4688814,5.94961 v 0.019498 0.019499 l 0.1340367,0.096264 0.1340388,0.096264 0.2289693,0.1307932 0.2289693,0.1307943 0.032844,2.194e-4 0.032844,2.205e-4 z M 2.5577839,5.7963247 2.720767,5.7133642 3.187492,5.4684013 3.654217,5.2234384 V 5.2088854 5.1943324 L 3.563896,5.063052 3.473575,4.9317705 H 3.403057 3.332539 l -0.2169857,0.02919 -0.2169856,0.02919 -0.5749842,0.059315 -0.57498,0.059315 -0.012936,0.012936 -0.012936,0.012925 0.1266888,0.1874922 0.1266804,0.1874922 0.1770048,0.1852084 0.1769964,0.1852085 0.03234,-3.78e-4 0.03234,-3.78e-4 z m 7.4083327,1.3005437 v -0.055923 l 0.1259424,-0.019383 0.125941,-0.019383 0.09631,-0.016159 0.09631,-0.01616 V 6.9472959 6.9247314 L 10.354605,6.7950228 10.298598,6.6653142 10.114959,6.2208145 9.9313217,5.7763149 l -0.026974,-0.032571 -0.026974,-0.032571 -0.168085,0.026355 -0.168084,0.026355 -0.041296,0.050663 -0.041297,0.050662 -0.015424,-0.037044 -0.015424,-0.037044 H 9.2227975 9.0178333 V 5.954103 6.1170861 h -0.029075 -0.029075 l -0.01449,-0.066675 -0.01449,-0.066675 -0.0083,-0.074078 -0.00829,-0.074088 -0.2370669,-0.014816 -0.2370669,-0.014816 0.029915,-0.019562 0.029915,-0.019562 0.2516073,-0.019635 0.2516062,-0.019635 0.5778497,-0.072671 0.5778493,-0.072671 0.325967,-0.077658 0.325967,-0.077658 0.204297,-0.069447 0.204297,-0.069447 0.131377,-0.076996 0.131378,-0.076996 0.0866,-0.1365546 0.0866,-0.1365556 v -0.049841 -0.049833 l 0.04446,-0.036887 0.04446,-0.036886 v 0.07771 0.077711 l 0.03704,2.016e-4 0.03704,2.016e-4 0.79884,0.088693 0.79884,0.088694 h 0.06743 0.06743 l 0.07586,-0.1496943 0.07586,-0.1496943 0.06205,-0.2660553 0.06206,-0.2660553 -0.01745,-0.017461 -0.01745,-0.017462 -0.542221,0.077752 -0.542224,0.077753 -0.08396,-1.428e-4 -0.08396,-1.429e-4 0.01165,-0.034923 0.01164,-0.034923 0.04269,-0.021431 0.04269,-0.021431 0.591681,-0.080388 0.59168,-0.080388 0.04251,-0.016317 0.04251,-0.016317 -0.01573,0.2493645 -0.01573,0.2493655 -0.101,0.2683422 -0.100989,0.2683422 -0.170609,0.2703908 -0.170611,0.2703897 -0.228318,0.233604 -0.228319,0.233604 -0.207434,0.1544697 -0.207433,0.1544697 -0.4445,0.2210617 -0.4445,0.2210607 -0.31115,0.087686 -0.31115,0.087686 -0.414867,0.07602 -0.414866,0.07602 -0.08149,0.013776 -0.08149,0.013776 z M 10.892159,6.8682456 11.092184,6.8219196 V 6.7999956 6.7780716 L 10.93597,6.5290746 10.779757,6.2800776 10.575814,5.9452809 10.371869,5.6104842 l -0.03779,0.014501 -0.03779,0.0145 -0.113229,0.018868 -0.113228,0.018858 -0.0349,0.010752 -0.0349,0.010752 0.09791,0.246226 0.09791,0.2462271 0.156391,0.3791771 0.156389,0.3791781 0.09175,-0.017482 0.09175,-0.017482 z m 0.894387,-0.2979911 0.116512,-0.059913 -0.424996,-0.4410934 -0.424996,-0.4410924 -0.06688,-0.070949 -0.06689,-0.070949 -0.2173,0.054569 -0.2173,0.054558 -0.0092,0.00588 -0.0092,0.00588 0.234281,0.3660688 0.234281,0.3660679 0.08406,0.1481665 0.08406,0.1481666 0.05538,0.080661 0.05538,0.080661 0.228234,-0.083423 0.228232,-0.083423 z M 12.201945,6.3665262 12.395113,6.260347 12.589812,6.1184049 12.784512,5.9764617 12.656956,5.9031607 12.5294,5.8298597 11.989794,5.5538714 11.450189,5.2778841 l -0.193024,0.086237 -0.193021,0.086237 -7.98e-4,0.022932 -7.98e-4,0.022932 0.463993,0.4882384 0.463994,0.4882385 h 0.0091 0.0091 z m 0.835559,-0.6420635 0.150481,-0.1555743 0.152249,-0.2044444 0.15225,-0.2044444 v -0.021126 -0.021126 l -0.200025,-0.01973 -0.200025,-0.01973 -0.637117,-0.074487 -0.637117,-0.074487 -0.04446,-0.012106 -0.04446,-0.012106 -0.09311,0.1604023 -0.09311,0.1604011 0.300551,0.1540014 0.30055,0.1540025 0.33434,0.1730736 0.33434,0.1730736 h 0.03709 0.03709 z M 7.4275285,5.237983 l 0.019761,-0.019751 0.019761,0.019751 0.019761,0.01975 H 7.4473 7.4077885 Z M 7.358386,4.8715194 V 4.5742014 L 7.283227,4.4258815 7.208068,4.2775617 l -0.2251022,0.020402 -0.2251021,0.020402 0.021578,-0.2014929 0.021578,-0.2014929 0.06909,-0.4280283 0.06909,-0.4280283 0.016979,-0.016979 0.016978,-0.016979 0.00914,0.012348 0.00913,0.012348 0.1291615,0.2902105 0.1291626,0.2902106 0.024108,0.014899 0.024108,0.014899 0.059881,-0.032046 0.059882,-0.032046 V 3.5661804 3.5361714 L 7.3122143,3.3713518 7.2067796,3.2065312 7.1492291,3.0605277 7.0916786,2.9145241 v -0.028539 -0.028539 h 0.6353676 0.6353676 l 0.02079,-0.033642 0.02079,-0.033642 0.039176,0.070676 0.039175,0.070676 0.00101,0.099708 0.00101,0.099708 0.07875,0.1446879 0.07875,0.1446879 -0.050935,0.05629 -0.050935,0.05629 -0.01701,0.1734495 -0.01701,0.1734495 -0.029253,0.037044 -0.029253,0.037044 H 8.3029261 8.1583883 l -0.062706,0.062706 -0.062706,0.062706 0.021021,0.1225014 0.021021,0.1225014 -3.78e-5,0.073269 -3.67e-5,0.073269 -0.07895,0.067914 -0.07895,0.067914 -0.027489,-0.016989 -0.027489,-0.016989 V 4.029663 3.4866513 l -0.059115,-0.015456 -0.059115,-0.015456 -0.019257,-0.054673 -0.019257,-0.054674 -0.06238,-0.050263 -0.06238,-0.050253 0.032529,-0.032655 0.032529,-0.032655 0.079149,0.036067 0.079149,0.036068 0.080934,-0.077206 0.080934,-0.077206 0.083422,-0.031521 0.083423,-0.031521 0.094374,-4.536e-4 0.094374,-4.536e-4 0.044457,-0.028728 0.044457,-0.028728 -0.080031,-4.536e-4 -0.080031,-4.536e-4 -0.1460456,0.031322 -0.1460445,0.031321 -0.068019,0.072398 -0.068019,0.072398 h -0.048174 -0.048174 l -0.032571,-0.032582 -0.032571,-0.032582 -0.062181,0.019729 -0.062181,0.01974 -0.018155,0.072324 -0.018154,0.072324 0.050452,0.076997 0.050453,0.076996 0.081491,0.085271 0.08149,0.085271 0.019488,0.4941783 0.019488,0.4941773 V 4.8920416 5.1688258 H 7.5805534 7.3583041 Z m 0.8336181,-1.6093497 -0.033001,-0.039763 0.019498,-0.019499 0.019499,-0.019499 0.076545,-0.00346 0.076545,-0.00347 -0.056773,-0.014501 -0.056774,-0.0145 -0.1136153,0.037495 -0.1136152,0.037495 v 0.022827 0.022827 l 0.066675,0.012841 0.066675,0.012842 0.040677,0.00399 0.040677,0.00399 z m -0.2990936,1.5752908 0.00105,-0.06867 0.1141014,-0.078855 0.1141025,-0.078855 0.053456,-0.12117 0.053456,-0.1211689 0.031342,4.536e-4 0.031343,4.536e-4 0.041559,0.026313 0.041559,0.026313 -0.0712,0.142108 -0.0712,0.1421081 -0.103719,0.080073 -0.103719,0.080073 -0.066675,0.01975 -0.066675,0.01975 z m -0.6863913,-0.031626 -0.07162,-0.066675 -0.063746,-0.103719 -0.063745,-0.103719 -0.019331,-0.077458 -0.01933,-0.077458 0.061131,-0.015992 0.061131,-0.015992 0.034209,0.114199 0.034209,0.1141991 0.084651,0.081102 0.084651,0.081102 v 0.068534 0.068534 H 7.3034237 7.2781187 Z M 6.6101444,3.8305336 6.5286539,3.8007661 V 3.7733821 3.7459981 L 6.6670103,3.2982918 6.8053678,2.8505865 6.7559128,2.8229085 6.7064578,2.7952305 v -0.022827 -0.022827 l 0.084136,-0.094237 0.084137,-0.094238 h 0.024654 0.024654 l 0.05419,0.049046 0.05419,0.049046 0.052658,-0.047659 0.052657,-0.04766 0.1699057,-0.077785 0.1699036,-0.077784 -0.01701,-0.027531 -0.01701,-0.027531 -0.087024,-0.045003 -0.087024,-0.045003 V 2.18937 2.1155025 l 0.061278,-0.2286512 0.061278,-0.2286522 0.012128,-0.012128 0.012128,-0.012128 -0.078645,-0.1399146 -0.078645,-0.1399156 0.038367,-0.092631 0.038367,-0.092631 0.096316,-0.059524 0.096317,-0.059524 h 0.102459 0.102459 l 0.067641,0.071998 0.067641,0.071988 0.025137,0.216931 0.025137,0.2169321 0.00158,0.2815166 0.00157,0.2815166 0.018354,0.1110228 0.018354,0.1110217 0.1193546,0.032141 0.1193556,0.03214 0.084221,0.084221 0.084221,0.08422 v 0.03191 0.031909 H 7.6981996 7.0305203 l -0.01637,0.042672 -0.016369,0.042661 0.125013,0.2850508 0.125013,0.2850498 0.067557,0.099561 0.067557,0.099561 -0.017231,0.017231 -0.017231,0.017231 H 7.3129913 7.2775223 L 7.2035813,3.4278996 7.1296298,3.2575077 7.0312028,3.0278496 6.9327758,2.7981915 h -0.020444 -0.020443 l -0.030775,0.2410621 -0.030775,0.2410622 -0.027867,0.018228 -0.027867,0.018228 -0.065237,0.2034616 -0.065237,0.2034628 0.015488,0.015487 0.015487,0.015487 0.032613,-0.085606 0.032613,-0.085596 0.016569,-0.08252 0.016569,-0.08252 0.013933,0.013944 0.013934,0.013944 -0.037412,0.2093396 -0.037412,0.2093406 -0.017482,-0.00231 -0.017482,-0.00231 z m 1.2067461,-2.0357043 -0.020601,-0.484764 -0.089471,-0.093083 -0.089471,-0.093082 0.040908,0.057404 0.040908,0.057403 -0.044457,-0.016296 -0.044457,-0.016296 -0.066675,-0.020885 -0.066675,-0.020884 v 0.016107 0.016107 l 0.1111247,0.058664 0.1111246,0.058663 -0.079569,0.00126 -0.079569,0.00137 -0.076009,-0.028896 -0.07601,-0.028896 3.05e-5,0.021493 3.04e-5,0.021494 0.1481361,0.083202 0.1481372,0.083202 v 0.026502 0.026502 L 7.5510285,1.4809993 7.417732,1.4408783 l 0.016779,0.027143 0.016779,0.027142 0.114512,0.058422 0.114513,0.058422 0.021242,0.034377 0.021241,0.034377 -0.085911,-0.020549 -0.085911,-0.020549 -0.059272,-0.016737 -0.059273,-0.016737 0.032298,0.034146 0.032287,0.034146 0.099477,0.053351 0.099477,0.05335 0.010826,0.032487 0.010826,0.032487 -0.1072239,-0.02961 -0.1072229,-0.02961 -0.0502,0.012159 -0.05019,0.012159 0.1777997,0.083696 0.1777996,0.083695 -0.053004,0.012117 -0.053004,0.012117 L 7.5201763,1.9578343 7.387975,1.9127893 v 0.027405 0.027405 l 0.1789315,0.090321 0.1789326,0.090321 -0.01659,0.026848 -0.01659,0.026848 -0.150445,-0.044677 -0.1504472,-0.044678 -0.014889,0.014889 -0.014889,0.014889 0.1882073,0.097199 0.1882072,0.097199 -0.063651,0.01008 -0.063651,0.01008 -0.1067461,-0.044607 -0.1067472,-0.044604 v 0.024496 0.024497 l 0.037044,0.030314 0.037044,0.030313 0.1316196,0.025767 0.1316206,0.025767 0.03108,0.1031205 0.03108,0.1031205 0.010185,-0.1777996 0.010185,-0.1778007 z"
       id="path1" />
  </g>
</svg>
