<?xml version="1.0" encoding="UTF-8" standalone="no"?>
<!-- Created with Inkscape (http://www.inkscape.org/) -->

<svg
   width="14.42486mm"
   height="13.898724mm"
   viewBox="0 0 14.42486 13.898724"
   version="1.1"
   id="svg1"
   xmlns="http://www.w3.org/2000/svg"
   xmlns:svg="http://www.w3.org/2000/svg">
  <defs
     id="defs1" />
  <g
     id="layer1"
     transform="translate(-0.28757001,-0.55063801)">
    <path
       style="fill:#1a1a16;fill-opacity:1;stroke-width:0.08"
       d="m 6.823333,14.417946 -0.282221,-0.02445 -0.254,-0.04289 -0.254,-0.04289 L 5.694444,14.221386 5.355778,14.135056 5.101881,14.048666 4.847985,13.962276 4.622104,13.865886 4.396223,13.769496 4.076576,13.601921 3.756931,13.434346 3.470076,13.243746 3.183222,13.053149 2.943056,12.861263 2.702889,12.669376 2.374138,12.346369 2.045394,12.023362 1.83417,11.762144 1.622946,11.500926 1.407082,11.176371 1.191226,10.851816 0.982754,10.428482 0.774274,10.005149 0.670962,9.694705 0.56765,9.38426 0.50021,9.102038 0.43269,8.819816 0.38861,8.565816 0.34453,8.311815 0.31605,7.865602 0.28757,7.419388 0.31749,7.018935 0.34741,6.618482 0.39093,6.366241 0.43445,6.114 0.48861,5.886463 0.54277,5.658927 0.652738,5.334371 0.762714,5.009816 0.918994,4.671149 1.075274,4.332483 1.153354,4.191371 1.231354,4.05026 1.433474,3.739816 1.635594,3.429371 1.862066,3.16126 2.08853,2.893149 2.411482,2.567255 2.734439,2.241361 2.972632,2.055799 3.210825,1.870238 3.493048,1.686407 3.77527,1.502577 4.099825,1.332598 4.42438,1.16262 4.759199,1.031399 5.094016,0.900178 l 0.356627,-0.09853 0.356626,-0.09853 0.423334,-0.07494 0.423333,-0.07494 0.804333,-0.0013 0.804334,-0.0013 0.254,0.03796 0.254,0.03796 0.268111,0.05583 0.268111,0.05583 0.296333,0.0864 0.296334,0.0864 0.211666,0.08293 0.211667,0.08293 0.225778,0.101068 0.225777,0.101067 0.296334,0.167442 0.296333,0.167441 0.225777,0.150522 0.225779,0.150522 0.296333,0.238872 0.296333,0.238871 0.340071,0.348976 0.340072,0.348975 0.174648,0.230726 0.174648,0.230726 0.200218,0.305496 0.200218,0.305496 0.164512,0.338667 0.164512,0.338667 0.111912,0.296333 0.11191,0.296333 0.08673,0.338667 0.08673,0.338666 0.04289,0.254001 0.04289,0.253999 0.0296,0.425875 0.0296,0.425876 -0.02793,0.439346 -0.02793,0.439347 -0.05683,0.315603 -0.05683,0.315603 -0.07018,0.277628 -0.07018,0.277628 -0.117284,0.319548 -0.117284,0.319547 -0.124102,0.247761 -0.124102,0.247761 -0.181987,0.306588 -0.181987,0.306587 -0.207985,0.278207 -0.207985,0.278206 -0.226977,0.250191 -0.226977,0.250191 -0.249997,0.225708 -0.249997,0.225709 -0.258016,0.193929 -0.258016,0.19393 -0.334845,0.203229 -0.334844,0.203228 -0.324555,0.153634 -0.324556,0.153634 -0.282222,0.106453 -0.282222,0.106454 -0.268111,0.0722 -0.268111,0.07219 -0.285281,0.05732 -0.285281,0.05732 -0.476719,0.04226 -0.476719,0.04226 -0.310444,-0.0035 -0.310445,-0.0035 z m 1.328599,-0.13936 0.30829,-0.03046 0.368961,-0.06756 0.368961,-0.06756 0.364816,-0.110382 0.364818,-0.110382 0.29013,-0.11627 0.29013,-0.11627 0.21787,-0.109755 0.21787,-0.109754 0.225778,-0.133516 0.225777,-0.133515 0.247839,-0.169536 0.24784,-0.169535 0.231938,-0.197756 0.231938,-0.197754 0.151482,-0.144271 0.151481,-0.14427 0.267685,-0.310444 0.267686,-0.310445 0.23377,-0.352777 0.233771,-0.352778 0.212603,-0.423334 L 14.08597,9.97693 14.18572,9.688707 14.28547,9.400486 14.36981,9.053707 14.45415,8.706929 14.49107,8.46704 14.52799,8.227151 14.52669,7.479262 14.52539,6.731374 14.47631,6.449151 14.42723,6.166929 14.35645,5.884707 14.28567,5.602485 14.18667,5.306152 14.08767,5.009818 13.880472,4.586489 13.673228,4.163156 13.455225,3.8386 13.237223,3.514045 13.078614,3.319272 12.920006,3.124499 12.652356,2.843011 12.384708,2.561522 12.101665,2.329467 11.818624,2.097412 11.621068,1.957664 11.423512,1.817916 11.176226,1.669046 10.92894,1.520176 10.583559,1.355404 10.238179,1.190633 9.941845,1.087864 9.645512,0.985096 9.404677,0.917356 9.163842,0.849616 8.781052,0.778916 8.398262,0.708216 7.963554,0.676866 7.528846,0.645516 7.218401,0.663436 6.907957,0.681356 6.668068,0.708606 6.428179,0.735856 6.057733,0.805726 5.687287,0.875596 5.360825,0.975456 5.034363,1.075326 4.760072,1.186931 4.48578,1.298536 4.103724,1.49844 3.721668,1.698343 3.480368,1.864033 3.239068,2.029723 3.011396,2.212353 2.783724,2.394982 2.413858,2.777981 2.043994,3.16098 1.855578,3.405078 1.667154,3.649176 1.541466,3.845259 1.415786,4.041343 1.279026,4.287636 1.142266,4.533929 0.974074,4.927098 l -0.1682,0.393169 -0.05984,0.183445 -0.05984,0.183444 -0.06992,0.296333 -0.06992,0.296334 -0.0436,0.299955 -0.0436,0.299955 v 0.58542 0.585422 l 0.044,0.299955 0.044,0.299956 0.09487,0.395111 0.09486,0.395111 0.102344,0.282223 0.102336,0.282221 0.188392,0.381 0.1884,0.381 0.214888,0.324556 0.214888,0.324556 0.179224,0.225777 0.179232,0.225779 0.354584,0.353972 0.354581,0.353973 0.239889,0.186043 0.239888,0.186042 0.268112,0.177829 0.268111,0.177829 0.366889,0.190265 0.366888,0.190267 0.282223,0.111676 0.282222,0.111675 0.356441,0.101989 0.356442,0.101988 0.264447,0.05373 0.264448,0.05373 0.254,0.03123 0.254,0.03123 0.08467,0.0096 0.08467,0.0096 0.397265,0.0042 0.397265,0.0042 z m -1.314488,-0.477543 -0.05644,-0.05645 v -0.284077 -0.284078 l -0.02922,-0.05459 -0.02922,-0.05459 h -0.05385 -0.05385 l -0.04394,0.06273 -0.04394,0.06273 v 0.219498 0.219499 h -0.05597 -0.05597 l -0.0715,-0.141111 -0.0715,-0.141112 H 6.0147 5.757357 l -0.06539,0.07055 -0.06539,0.07056 h -0.06562 -0.06562 l -0.06272,-0.04394 -0.06273,-0.04394 v -0.0787 -0.0787 l 0.05161,-0.0467 0.05161,-0.0467 h 0.07558 0.07558 l 0.06134,0.07055 0.06134,0.07055 h 0.28889 0.288889 l 0.0579,0.07761 0.0579,0.07761 8.8e-4,-0.16356 8.8e-4,-0.16356 0.06927,-0.06927 0.06927,-0.06927 h 0.08103 0.08103 l 0.06034,0.06423 0.06034,0.06423 0.0081,0.309709 0.0081,0.309711 h 0.05644 0.05645 l 0.01411,-0.320096 0.01411,-0.320096 0.06662,-0.05385 0.06662,-0.05385 h 0.0643 0.0643 l 0.06662,0.05385 0.06662,0.05385 0.01411,0.320096 0.01411,0.320096 h 0.05645 0.05644 l 0.008,-0.316169 0.008,-0.316169 0.07345,-0.05778 0.07345,-0.05778 h 0.06675 0.06675 l 0.05573,0.05573 0.05573,0.05573 0.01867,0.07438 0.01866,0.07438 -0.01561,0.20637 -0.01561,0.206372 0.03591,0.04911 0.03591,0.04911 0.04642,-0.01781 0.04642,-0.01781 v -0.31133 -0.31133 l 0.05645,-0.05645 0.05644,-0.05644 h 0.07934 0.07934 l 0.06142,0.05722 0.06142,0.05722 0.01419,0.06272 0.01419,0.06272 0.0073,0.155222 0.0073,0.155222 0.05644,-0.112889 0.05645,-0.112889 0.294061,-0.0081 0.294061,-0.0081 0.06442,-0.06951 0.06442,-0.06951 h 0.08164 0.08164 l 0.0467,0.05161 0.0467,0.05161 v 0.07102 0.07102 l -0.05161,0.0467 -0.05161,0.0467 h -0.07674 -0.07674 l -0.06539,-0.07056 -0.06539,-0.07055 H 9.054797 8.837455 l -0.04953,0.0265 -0.04953,0.0265 -0.05057,0.112142 -0.05057,0.112143 -0.05984,0.01565 -0.05984,0.01565 -0.02871,-0.02858 -0.02871,-0.02858 -0.01411,-0.242739 -0.01411,-0.24274 -0.04939,-0.031 -0.04939,-0.031 -0.04939,0.03102 -0.04939,0.03102 -0.01411,0.317147 -0.01411,0.317146 -0.06488,0.05243 -0.06488,0.05243 -0.04801,-0.01708 -0.04801,-0.01708 -0.03528,-0.0273 -0.03528,-0.0273 v -0.286565 -0.286599 l -0.04394,-0.06273 -0.04394,-0.06273 h -0.05385 -0.05385 l -0.02922,0.05459 -0.02922,0.05459 v 0.296588 0.296589 l -0.06272,0.04394 -0.06273,0.04394 h -0.03606 -0.03606 l -0.05645,-0.05645 -0.05645,-0.05645 v -0.279096 -0.279095 l -0.05468,-0.06662 -0.05467,-0.06662 -0.05116,0.03117 -0.05116,0.03117 -0.01411,0.311733 -0.01411,0.311733 -0.05376,0.05926 -0.05376,0.05926 h -0.05207 -0.05207 z m -1.213853,-0.437085 0.03483,-0.04198 -0.01638,-0.0427 -0.01638,-0.0427 h -0.07233 -0.07233 l -0.01625,0.04234 -0.01625,0.04234 0.01625,0.04234 0.01625,0.04234 h 0.05387 0.05387 z m 3.922889,0 0.03483,-0.04198 -0.01638,-0.0427 -0.01638,-0.0427 H 9.48013 9.41171 l -0.01762,0.04591 -0.01762,0.04591 0.03217,0.03875 0.03217,0.03876 H 9.47623 9.51165 Z M 5.821444,12.209691 v -0.490685 l 0.08483,-0.01245 0.08483,-0.01245 0.01395,0.01395 0.01395,0.01395 v 0.404518 0.404518 h 0.254 0.254 v 0.08467 0.08467 H 6.174226 5.821448 Z m 1.100668,0.452653 v -0.03803 l 0.209688,-0.448801 0.209688,-0.4488 0.108028,-0.0083 0.108028,-0.0083 0.202812,0.445788 0.202812,0.445789 0.01871,0.04939 0.01871,0.04939 H 7.899368 7.798144 L 7.740554,12.587581 7.682964,12.474692 H 7.444218 7.205476 l -0.05759,0.112889 -0.05759,0.112889 h -0.08409 -0.08409 z m 0.705555,-0.343587 v -0.01473 l -0.08691,-0.18988 -0.08691,-0.18988 -0.09363,0.183444 -0.09364,0.183445 0.01287,0.02117 0.01288,0.02117 h 0.167667 0.167668 z m 0.750341,-0.09811 -0.01995,-0.47973 0.01688,-0.0273 0.01688,-0.02731 0.302317,0.0141 0.302319,0.0141 0.07395,0.02918 0.07395,0.02918 0.03188,0.06998 0.03188,0.06998 v 0.08334 0.08334 l -0.05329,0.05329 -0.05329,0.05329 0.07382,0.05511 0.07382,0.05511 v 0.115122 0.115124 l -0.05298,0.05854 -0.05298,0.05854 -0.101603,0.02822 -0.101603,0.02822 -0.271019,1.6e-4 -0.271019,1.6e-4 z m 0.637381,0.263688 0.05161,-0.0467 v -0.03594 -0.03594 l -0.04435,-0.04435 -0.04435,-0.04435 H 8.78276 8.58722 v 0.127 0.127 h 0.188278 0.188278 z m -0.0387,-0.410493 0.03386,-0.03386 v -0.06561 -0.06561 l -0.07239,-0.02752 -0.07239,-0.02752 H 8.726496 8.587221 v 0.127 0.127 h 0.1778 0.1778 z M 3.253223,10.187411 V 9.198446 l 0.217476,0.0082 0.217476,0.0082 0.339913,0.385763 0.339912,0.385764 0.01411,0.0018 0.01411,0.0018 L 4.748998,9.59555 5.101776,9.201128 5.320498,9.20096 5.53922,9.200792 v 0.987777 0.987778 H 5.3163 5.093378 l 0.0016,-0.416278 0.0016,-0.416277 -0.0045,-0.23871 -0.0045,-0.238709 -0.129004,0.12582 -0.129003,0.125821 -0.200561,0.232834 -0.200561,0.232833 -0.04438,-3.04e-4 -0.04438,-3.04e-4 L 4.173857,10.392877 4.008026,10.202681 3.854359,10.040402 3.700692,9.878125 h -0.01211 -0.01211 v 0.649111 0.649111 H 3.464806 3.25314 Z M 5.765,11.155354 v -0.02102 l 0.398302,-0.931478 0.398302,-0.931479 0.04454,-0.03528 0.04454,-0.03528 H 6.867612 7.08454 l 0.02858,0.03528 0.02858,0.03528 0.09967,0.239889 0.09967,0.239889 0.258799,0.564445 0.258799,0.564444 0.05762,0.134056 0.05762,0.134055 h 0.01969 0.01969 L 8.298087,10.477877 8.582916,9.8076 8.704495,9.518377 8.826072,9.229154 l 0.0852,-0.01584 0.0852,-0.01584 0.182552,0.0087 0.182552,0.0087 0.08878,0.211667 0.08878,0.211667 0.342502,0.755337 0.342503,0.755337 v 0.01372 0.01372 H 9.9885 9.752858 l -0.06614,-0.166525 -0.06614,-0.166525 -0.100381,-0.01661 -0.100382,-0.01661 -0.313973,-3.12e-4 -0.313972,-3.12e-4 -0.09217,0.01843 -0.09217,0.01843 -0.0712,0.165009 -0.0712,0.16501 H 7.988746 7.512408 l -0.08261,-0.184114 -0.08261,-0.184115 -0.487713,0.0078 -0.487713,0.0078 -0.08264,0.176389 -0.08264,0.176389 H 5.985735 5.764988 Z M 7.03607,10.068653 6.872107,9.694709 h -0.02073 -0.02073 l -0.134773,0.314233 -0.134773,0.314233 -0.01895,0.05971 -0.01895,0.05971 H 6.86162 7.200039 Z m 2.390134,0.338668 -0.01372,-0.03528 -0.148168,-0.345723 -0.148168,-0.345722 -0.01752,5.6e-5 -0.01752,5.6e-5 -0.05982,0.14811 -0.05982,0.148111 -0.101388,0.232833 -0.101386,0.232834 H 9.09931 9.439925 Z m 1.193018,-0.02117 V 9.595933 h -0.27991 -0.279914 l -0.04464,-0.01713 -0.04464,-0.01713 V 9.395354 9.22904 h 0.832556 0.832555 l 0.02117,-0.007 0.02117,-0.007 0.0083,0.1905 0.0083,0.1905 h -0.325761 -0.325844 v 0.790222 0.790222 H 10.830896 10.61923 Z M 3.083893,8.67871 V 8.63638 h 4.416778 4.416777 V 8.67871 8.72104 H 7.500671 3.083893 Z m 6.810533,-0.117919 -0.0898,-0.01237 0.05736,-0.09721 0.05736,-0.09721 -0.0101,-0.126919 -0.0101,-0.12692 h 0.01054 0.01054 l 0.139868,0.102673 0.139869,0.102673 0.247029,0.07745 0.247028,0.07745 0.06138,0.03834 0.06138,0.03833 v 0.01517 0.01518 l -0.416278,0.0029 -0.416278,0.0029 z m -4.496506,-0.05118 0.0358,-0.04314 0.144475,-0.04052 0.144474,-0.04052 0.119623,-0.03075 0.119624,-0.03075 0.189189,-0.129525 0.18919,-0.129524 0.07443,-0.02135 0.07443,-0.02135 0.08725,0.03669 0.08725,0.03669 0.03183,0.05948 0.03183,0.05948 -0.0084,0.161542 -0.0084,0.161543 -0.674165,0.0076 -0.674164,0.0076 z M 6.809226,8.370227 V 8.184819 h 0.0719 0.0719 l -0.0084,0.176389 -0.0084,0.176389 -0.0635,0.009 -0.0635,0.009 z m 0.233398,0.011 0.01566,-0.17264 0.0095,-0.0084 0.0095,-0.0084 0.522111,-0.06001 0.522111,-0.06001 0.245279,8e-5 0.245279,8e-5 0.01562,-0.02526 0.01562,-0.02526 -0.04448,-0.01707 -0.04448,-0.01707 H 8.336227 8.118111 L 7.668257,8.043377 7.218404,8.099487 7.02678,8.099823 6.835156,8.100159 6.730447,8.046719 6.625738,7.993279 6.578978,7.940889 6.532218,7.888499 6.499108,7.764186 6.465998,7.639874 6.485728,7.469912 6.505458,7.29995 6.645036,7.03474 6.784614,6.769529 6.800514,6.579952 6.816414,6.390375 6.783794,6.23829 6.751174,6.086205 6.639079,5.837258 6.526984,5.588311 v -0.05826 -0.05826 l -0.02906,-0.0543 -0.02906,-0.0543 -0.07678,-0.03932 -0.07678,-0.03932 -0.14111,-0.01843 -0.141111,-0.01843 -0.635,-0.02572 -0.635,-0.02572 L 4.214616,5.053163 3.66615,4.910075 3.65775,4.901675 3.64935,4.893275 3.67709,4.796555 3.70483,4.699835 V 4.664375 4.628915 H 3.6788 3.65277 L 3.61895,4.734748 3.58513,4.840582 3.56375,4.863962 3.54237,4.887342 3.348442,4.831572 3.154513,4.775802 l -0.0761,-0.01716 -0.0761,-0.01716 -0.07123,-0.11945 -0.07123,-0.119449 0.105005,-0.03265 0.105005,-0.03265 -0.09878,-0.0053 -0.09878,-0.0053 0.09861,-0.04292 0.09861,-0.04293 0.119759,0.0135 0.119759,0.0135 0.162846,0.09701 0.162846,0.09701 0.668669,0.121355 0.668668,0.121354 0.530556,-0.03073 0.530556,-0.03073 0.341361,-0.01431 0.341361,-0.01432 0.03813,0.115532 0.03813,0.115532 0.125125,0.139168 0.125125,0.139169 0.081,0.04189 0.081,0.04188 v 0.182713 0.18272 H 7.472526 7.740637 V 5.504188 5.33533 L 7.876483,5.26649 8.01233,5.19765 8.10932,5.089625 8.20631,4.981599 8.25998,4.861654 8.31365,4.74171 l 0.0451,5.28e-4 0.0451,5.28e-4 0.738298,0.05313 0.738297,0.05313 0.198601,-0.03784 0.198601,-0.03784 0.488324,-0.07412 0.488323,-0.07412 0.09878,-0.06436 0.09878,-0.06436 0.09878,-0.05142 0.09878,-0.05142 0.112773,-0.02094 0.112772,-0.02094 0.09184,0.03837 0.09184,0.03837 v 0.01609 0.01609 l -0.06748,-0.01694 -0.06748,-0.01693 -0.01886,0.03051 -0.01886,0.03051 h 0.100443 0.100444 v 0.03077 0.03077 l -0.07761,0.110617 -0.07761,0.110618 -0.05645,0.01158 -0.05644,0.01158 -0.183445,0.04355 -0.183444,0.04355 -0.05918,0.01731 -0.05918,0.01731 -0.0299,-0.07977 -0.0299,-0.07977 -0.01656,-0.05118 -0.01656,-0.05118 -0.02691,0.01663 -0.02691,0.01663 0.04113,0.116559 0.04113,0.116559 -0.01295,0.01295 -0.01295,0.01295 -0.563997,0.148533 -0.563999,0.148533 -0.813294,0.03467 -0.813295,0.03467 -0.04939,0.02621 -0.04939,0.02621 v 0.19083 0.190831 L 8.265898,5.93481 8.142055,6.123364 8.033066,6.399153 7.924075,6.674942 l 0.0025,0.303389 0.0025,0.303389 H 7.868255 7.807435 L 7.640658,7.25089 7.47388,7.22006 7.296808,7.13977 7.119735,7.05948 v 0.02208 0.02208 l 0.05015,0.04539 0.05015,0.04539 0.15909,0.07283 0.159089,0.07283 0.235256,0.02678 0.235256,0.02678 0.155223,0.03107 0.155222,0.03107 0.296334,0.08457 0.296333,0.08457 0.354416,0.138929 0.354415,0.138929 0.101915,0.09335 0.101915,0.09335 0.01994,0.106276 0.01994,0.106275 -0.03048,0.0669 -0.03048,0.0669 -0.07762,0.05088 -0.07762,0.05088 -1.310576,0.0081 -1.310577,0.0081 z M 9.032963,5.030991 9.041263,4.82638 H 8.941248 8.841234 v 0.192852 0.192852 l 0.02011,0.02011 0.02011,0.02011 0.07161,-0.0084 0.07162,-0.0084 z m -2.93516,-0.04233 0.0082,-0.218722 h -0.08585 -0.08585 v 0.227652 0.227653 l 0.07761,-0.0089 0.07761,-0.0089 z M 9.499582,7.755546 9.325382,7.665796 9.268562,7.480811 9.211742,7.295826 9.181702,7.092864 9.151672,6.889903 l -0.0023,-0.121594 -0.0023,-0.121594 -0.04279,0.0983 -0.04279,0.0983 0.01844,0.141592 0.01844,0.141592 0.05491,0.216504 0.05492,0.216503 0.01554,0.04051 0.01554,0.04051 L 8.920315,7.533993 8.601348,7.42746 8.363439,7.38244 8.125531,7.33743 8.117131,7.32903 8.108731,7.32063 8.25624,7.109207 8.403749,6.897783 8.591424,6.659346 8.779098,6.420908 8.887757,6.319288 8.996416,6.217668 9.066196,6.171118 9.135976,6.124568 H 9.252848 9.36972 l 0.07305,0.07305 0.07305,0.07305 0.01511,0.117452 0.01511,0.117451 0.05766,0.508 0.05766,0.508 L 9.68388,7.683849 9.7064,7.846126 9.69008,7.845693 9.67376,7.845259 Z M 6.075448,7.36173 5.750893,7.34055 5.398116,7.29632 5.045337,7.25209 4.679622,7.17934 4.313907,7.10659 3.903511,6.972361 3.493116,6.838132 3.196782,6.695045 2.900449,6.551959 2.674671,6.402977 2.44889,6.253995 2.245026,6.04802 2.041162,5.842046 1.898754,5.631016 1.756354,5.419986 1.656964,5.221934 1.557564,5.023881 1.502284,4.807729 1.447004,4.591576 V 4.457622 4.323668 l 0.04936,0.0097 0.04936,0.0097 0.613832,0.07733 0.613839,0.07733 v 0.06055 0.06055 L 2.597004,4.597188 2.420612,4.575548 2.067836,4.517578 1.715068,4.459608 l -0.0776,-6e-6 -0.0776,-6e-6 v 0.05506 0.05505 l 0.03128,0.149556 0.03128,0.149556 0.08426,0.204611 0.08426,0.204611 h 0.08994 0.08993 L 2.308642,5.2368 2.646466,5.19556 2.956909,5.16573 3.267354,5.1359 3.38571,5.11933 3.504066,5.10276 l 0.0086,-0.07465 0.0086,-0.07464 h 0.02822 0.02822 l 0.04901,0.152995 0.04901,0.152995 0.06388,0.06841 0.06388,0.06841 0.112889,0.06599 0.112889,0.06599 0.155222,0.05685 0.155222,0.05685 0.282223,0.07048 0.282222,0.07048 0.395111,0.05596 0.395111,0.05596 0.381,0.0308 0.381,0.0308 0.09172,0.01484 0.09172,0.01484 V 6.01306 6.04 H 6.445426 6.25093 L 6.23544,6.1035 6.21996,6.167 6.16405,6.604444 6.10814,7.041889 6.09492,7.158666 6.0817,7.275444 l 0.165628,0.01198 0.16563,0.01198 0.01988,0.01988 0.01988,0.01988 -0.02634,0.0219 -0.02634,0.0219 z M 6.000468,7.204106 6.013968,7.154716 6.045388,6.928938 6.076808,6.703161 6.115388,6.378605 6.153968,6.05405 6.135868,6.03553 6.117768,6.01701 5.935515,6.00731 5.75326,5.99761 5.604296,6.588317 5.455332,7.179025 l 0.01187,0.01187 0.01187,0.01187 0.150012,0.02184 0.150013,0.02184 0.103931,0.0035 0.103932,0.0035 z M 5.524356,6.58923 5.672565,5.997606 5.655285,5.979136 5.638005,5.960666 5.457145,5.950866 5.276285,5.941066 5.153692,6.251511 5.0311,6.561955 4.93335,6.836024 4.8356,7.110093 l 0.09076,0.01572 0.09076,0.01572 0.155222,0.02424 0.155222,0.02424 0.0243,-0.0046 0.0243,-0.0046 z m -0.54926,-0.08269 0.21913,-0.580066 -0.018,-0.01011 -0.018,-0.01011 -0.11289,-0.01932 -0.112888,-0.01932 -0.0464,-0.01356 -0.0464,-0.01356 -0.264045,0.426408 -0.264045,0.426407 -0.07736,0.12586 -0.07736,0.12586 0.04352,0.0167 0.04352,0.0167 0.245509,0.06273 0.245508,0.06272 0.01054,-0.0086 0.01054,-0.0086 z M 4.407791,6.374537 4.75026,5.834242 4.74256,5.828842 4.73486,5.823442 4.529987,5.779702 4.325112,5.735962 3.947508,6.120759 3.569904,6.505557 l -0.07603,0.09153 -0.07603,0.09153 0.07996,0.0317 0.07996,0.0317 0.211666,0.08001 0.211667,0.08001 0.0321,0.0014 0.0321,0.0014 z M 3.773053,6.168003 4.216216,5.703397 4.023999,5.615757 3.831781,5.528117 3.814821,5.523017 3.797861,5.517917 3.186874,5.840282 2.57589,6.162647 v 0.01857 0.01857 l 0.127654,0.09168 0.127656,0.09168 0.218066,0.124565 0.218066,0.124566 0.03128,2.09e-4 0.03128,2.1e-4 z M 2.660559,6.016661 2.815781,5.937651 3.260281,5.704353 3.704781,5.471055 V 5.457195 5.443335 L 3.618761,5.318306 3.532741,5.193276 h -0.06716 -0.06716 l -0.206653,0.0278 -0.206653,0.0278 -0.547604,0.05649 -0.5476,0.05649 -0.01232,0.01232 -0.01232,0.01231 0.120656,0.178564 0.120648,0.178564 0.168576,0.176389 0.168568,0.176389 0.0308,-3.6e-4 0.0308,-3.6e-4 z m 7.055555,1.238613 v -0.05326 l 0.119945,-0.01846 0.119944,-0.01846 0.09172,-0.01539 0.09172,-0.01539 V 7.112824 7.091334 L 10.086103,6.967802 10.032763,6.84427 9.857869,6.420937 9.682976,5.997604 l -0.02569,-0.03102 -0.02569,-0.03102 -0.160081,0.0251 -0.16008,0.0251 -0.03933,0.04825 -0.03933,0.04825 -0.01469,-0.03528 -0.01469,-0.03528 H 9.008191 8.812987 v 0.155222 0.155222 h -0.02769 -0.02769 l -0.0138,-0.0635 -0.0138,-0.0635 -0.0079,-0.07055 -0.0079,-0.07056 -0.225778,-0.01411 -0.225778,-0.01411 0.02849,-0.01863 0.02849,-0.01863 0.239626,-0.0187 0.239625,-0.0187 0.550333,-0.06921 0.550333,-0.06921 0.310445,-0.07396 0.310444,-0.07396 0.194569,-0.06614 0.194568,-0.06614 0.125121,-0.07333 0.125122,-0.07333 0.08248,-0.130052 0.08248,-0.130053 v -0.04747 -0.04746 l 0.04234,-0.03513 0.04234,-0.03513 v 0.07401 0.07401 l 0.03528,1.92e-4 0.03528,1.92e-4 0.7608,0.08447 0.7608,0.08447 h 0.06422 0.06422 l 0.07225,-0.142566 0.07225,-0.142566 0.0591,-0.253386 0.0591,-0.253386 -0.01662,-0.01663 -0.01662,-0.01663 -0.516401,0.07405 -0.516403,0.07405 -0.07996,-1.36e-4 -0.07996,-1.36e-4 0.01109,-0.03326 0.01109,-0.03326 0.04066,-0.02041 0.04066,-0.02041 0.563505,-0.07656 0.563505,-0.07656 0.04049,-0.01554 0.04049,-0.01554 -0.01498,0.23749 -0.01498,0.237491 -0.09619,0.255564 -0.09618,0.255564 -0.162485,0.257515 -0.162487,0.257514 -0.217446,0.22248 -0.217446,0.22248 -0.197556,0.147114 -0.197556,0.147114 -0.423333,0.210535 -0.423333,0.210534 -0.296334,0.08351 -0.296333,0.08351 -0.395111,0.0724 -0.395111,0.0724 -0.07761,0.01312 -0.07761,0.01312 z m 0.881945,-0.217736 0.1905,-0.04412 V 6.972538 6.951658 L 10.639784,6.714518 10.49101,6.477378 10.296778,6.158524 10.102545,5.83967 10.066555,5.85348 10.030565,5.86729 9.922728,5.88526 9.814891,5.90322 9.781651,5.91346 9.748411,5.9237 l 0.09325,0.234501 0.09325,0.234502 0.148943,0.361121 0.148942,0.361122 0.08738,-0.01665 0.08738,-0.01665 z M 11.449856,6.753737 11.56082,6.696677 11.156062,6.276588 10.751304,5.8565 l -0.0637,-0.06757 -0.0637,-0.06757 -0.206952,0.05197 -0.206953,0.05196 -0.0088,0.0056 -0.0088,0.0056 0.223125,0.348637 0.223125,0.348636 0.08006,0.141111 0.08006,0.141111 0.05274,0.07682 0.05274,0.07682 0.217365,-0.07945 0.217364,-0.07945 z M 11.845474,6.55971 12.029444,6.458587 12.214872,6.323404 12.4003,6.18822 12.278818,6.11841 12.157336,6.0486 l -0.51391,-0.262846 -0.51391,-0.262845 -0.183832,0.08213 -0.18383,0.08213 -7.6e-4,0.02184 -7.6e-4,0.02184 0.441899,0.464989 0.441899,0.464989 h 0.0087 0.0087 z m 0.795771,-0.611489 0.143315,-0.148166 0.144999,-0.194709 0.145,-0.194709 v -0.02012 -0.02012 l -0.1905,-0.01879 -0.1905,-0.01879 -0.606778,-0.07094 -0.606778,-0.07094 -0.04234,-0.01153 -0.04234,-0.01153 -0.08868,0.152764 -0.08868,0.152763 0.286239,0.146668 0.286238,0.146669 0.318419,0.164832 0.318419,0.164832 h 0.03532 0.03532 z m -5.342834,-0.463314 0.01882,-0.01881 0.01882,0.01881 0.01882,0.01881 H 7.317241 7.279611 Z M 7.232561,5.135894 V 4.852734 L 7.160981,4.711477 7.089401,4.57022 6.875018,4.58965 6.660635,4.60908 l 0.02055,-0.191898 0.02055,-0.191898 0.0658,-0.407646 0.0658,-0.407646 0.01617,-0.01617 0.01617,-0.01617 0.0087,0.01176 0.0087,0.01176 0.123011,0.276391 0.123012,0.276391 0.02296,0.01419 0.02296,0.01419 0.05703,-0.03052 0.05703,-0.03052 V 3.892714 3.864134 L 7.188588,3.707163 7.088174,3.550191 7.033364,3.41114 6.978554,3.272089 v -0.02718 -0.02718 h 0.605112 0.605112 l 0.0198,-0.03204 0.0198,-0.03204 0.03731,0.06731 0.03731,0.06731 9.6e-4,0.09496 9.6e-4,0.09496 0.075,0.137798 0.075,0.137798 -0.04851,0.05361 -0.04851,0.05361 -0.0162,0.16519 -0.0162,0.16519 -0.02786,0.03528 -0.02786,0.03528 H 8.132123 7.994468 l -0.05972,0.05972 -0.05972,0.05972 0.02002,0.116668 0.02002,0.116668 -3.6e-5,0.06978 -3.5e-5,0.06978 -0.07519,0.06468 -0.07519,0.06468 -0.02618,-0.01618 -0.02618,-0.01618 V 4.334126 3.816972 l -0.0563,-0.01472 -0.0563,-0.01472 -0.01834,-0.05207 -0.01834,-0.05207 -0.05941,-0.04787 -0.05941,-0.04786 0.03098,-0.0311 0.03098,-0.0311 0.07538,0.03435 0.07538,0.03435 0.07708,-0.07353 0.07708,-0.07353 0.07945,-0.03002 0.07945,-0.03002 0.08988,-4.32e-4 0.08988,-4.32e-4 0.04234,-0.02736 0.04234,-0.02736 -0.07622,-4.32e-4 -0.07622,-4.32e-4 -0.139091,0.02983 -0.13909,0.02983 -0.06478,0.06895 -0.06478,0.06895 h -0.04588 -0.04588 l -0.03102,-0.03103 -0.03102,-0.03103 -0.05922,0.01879 -0.05922,0.0188 -0.01729,0.06888 -0.01729,0.06888 0.04805,0.07333 0.04805,0.07333 0.07761,0.08121 0.07761,0.08121 0.01856,0.470646 0.01856,0.470645 V 5.155439 5.419043 H 7.444149 7.232483 Z M 8.026483,3.60318 7.995053,3.56531 8.013623,3.54674 8.032193,3.52817 8.105093,3.52487 8.177993,3.52157 8.123923,3.50776 8.069853,3.49395 7.961648,3.52966 7.853443,3.56537 v 0.02174 0.02174 l 0.0635,0.01223 0.0635,0.01223 0.03874,0.0038 0.03874,0.0038 z m -0.284851,1.500277 0.001,-0.0654 0.108668,-0.0751 0.108669,-0.0751 0.05091,-0.1154 0.05091,-0.115399 0.02985,4.32e-4 0.02985,4.32e-4 0.03958,0.02506 0.03958,0.02506 -0.06781,0.135341 -0.06781,0.135341 -0.09878,0.07626 -0.09878,0.07626 -0.0635,0.01881 -0.0635,0.01881 z m -0.653706,-0.03012 -0.06821,-0.0635 -0.06071,-0.09878 -0.06071,-0.09878 -0.01841,-0.07377 -0.01841,-0.07377 0.05822,-0.01523 0.05822,-0.01523 0.03258,0.108761 0.03258,0.108761 0.08062,0.07724 0.08062,0.07724 v 0.06527 0.06527 h -0.0241 -0.0241 z M 6.51995,4.144479 6.44234,4.116129 v -0.02608 -0.02608 l 0.131768,-0.426387 0.131769,-0.426386 -0.0471,-0.02636 -0.0471,-0.02636 v -0.02174 -0.02174 l 0.08013,-0.08975 0.08013,-0.08975 h 0.02348 0.02348 l 0.05161,0.04671 0.05161,0.04671 0.05015,-0.04539 0.05015,-0.04539 0.161814,-0.07408 0.161813,-0.07408 -0.0162,-0.02622 -0.0162,-0.02622 -0.08288,-0.04286 -0.08288,-0.04286 v -0.07035 -0.07035 l 0.05836,-0.217763 0.05836,-0.217764 0.01155,-0.01155 0.01155,-0.01155 -0.0749,-0.133252 -0.0749,-0.133253 0.03654,-0.08822 0.03654,-0.08822 0.09173,-0.05669 0.09173,-0.05669 h 0.09758 0.09758 l 0.06442,0.06857 0.06442,0.06856 0.02394,0.206601 0.02394,0.206602 0.0015,0.268111 0.0015,0.268111 0.01748,0.105736 0.01748,0.105735 0.113671,0.03061 0.113672,0.03061 0.08021,0.08021 0.08021,0.08021 V 3.04622 3.07661 H 7.556193 6.920308 l -0.01559,0.04064 -0.01559,0.04063 0.11906,0.271477 0.11906,0.271476 0.06434,0.09482 0.06434,0.09482 -0.01641,0.01641 -0.01641,0.01641 H 7.189328 7.155548 L 7.085128,3.761018 7.014698,3.59874 6.920958,3.380018 6.827218,3.161296 h -0.01947 -0.01947 l -0.02931,0.229583 -0.02931,0.229583 -0.02654,0.01736 -0.02654,0.01736 -0.06213,0.193773 -0.06213,0.193774 0.01475,0.01475 0.01475,0.01475 0.03106,-0.08153 0.03106,-0.08152 0.01578,-0.07859 0.01578,-0.07859 0.01327,0.01328 0.01327,0.01328 -0.03563,0.199371 -0.03563,0.199372 -0.01665,-0.0022 -0.01665,-0.0022 z m 1.149282,-1.938766 -0.01962,-0.46168 -0.08521,-0.08865 -0.08521,-0.08865 0.03896,0.05467 0.03896,0.05467 -0.04234,-0.01552 -0.04234,-0.01552 -0.0635,-0.01989 -0.0635,-0.01989 v 0.01534 0.01534 l 0.105833,0.05587 0.105833,0.05587 -0.07578,0.0012 -0.07578,0.0013 -0.07239,-0.02752 -0.07239,-0.02752 2.9e-5,0.02047 2.9e-5,0.02047 0.141082,0.07924 0.141083,0.07924 v 0.02524 0.02524 l -0.12695,-0.03821 -0.126949,-0.03821 0.01598,0.02585 0.01598,0.02585 0.109059,0.05564 0.10906,0.05564 0.02023,0.03274 0.02023,0.03274 -0.08182,-0.01957 -0.08182,-0.01957 -0.05645,-0.01594 -0.05645,-0.01594 0.03076,0.03252 0.03075,0.03252 0.09474,0.05081 0.09474,0.05081 0.01031,0.03094 0.01031,0.03094 -0.102118,-0.0282 -0.102117,-0.0282 -0.04781,0.01158 -0.0478,0.01158 0.169333,0.07971 0.169333,0.07971 -0.05048,0.01154 -0.05048,0.01154 -0.125905,-0.0429 -0.125906,-0.0429 v 0.0261 0.0261 l 0.170411,0.08602 0.170412,0.08602 -0.0158,0.02557 -0.0158,0.02557 L 7.426683,2.550883 7.2834,2.508333 7.26922,2.522513 7.25504,2.536693 7.434285,2.629263 7.61353,2.721833 7.55291,2.731433 7.49229,2.741033 7.390627,2.698553 7.288963,2.656073 v 0.02333 0.02333 l 0.03528,0.02887 0.03528,0.02887 0.125352,0.02454 0.125353,0.02454 0.0296,0.09821 0.0296,0.09821 0.0097,-0.169333 0.0097,-0.169334 z"
       id="path1" />
  </g>
</svg>
